<svg width="16" height="4" viewBox="0 0 16 4" fill="none" xmlns="http://www.w3.org/2000/svg">
<path d="M7.99998 2.83341C8.46022 2.83341 8.83331 2.46032 8.83331 2.00008C8.83331 1.53984 8.46022 1.16675 7.99998 1.16675C7.53974 1.16675 7.16665 1.53984 7.16665 2.00008C7.16665 2.46032 7.53974 2.83341 7.99998 2.83341Z" stroke="#667085" stroke-width="1.66667" stroke-linecap="round" stroke-linejoin="round"/>
<path d="M13.8333 2.83341C14.2935 2.83341 14.6666 2.46032 14.6666 2.00008C14.6666 1.53984 14.2935 1.16675 13.8333 1.16675C13.3731 1.16675 13 1.53984 13 2.00008C13 2.46032 13.3731 2.83341 13.8333 2.83341Z" stroke="#667085" stroke-width="1.66667" stroke-linecap="round" stroke-linejoin="round"/>
<path d="M2.16665 2.83341C2.62688 2.83341 2.99998 2.46032 2.99998 2.00008C2.99998 1.53984 2.62688 1.16675 2.16665 1.16675C1.70641 1.16675 1.33331 1.53984 1.33331 2.00008C1.33331 2.46032 1.70641 2.83341 2.16665 2.83341Z" stroke="#667085" stroke-width="1.66667" stroke-linecap="round" stroke-linejoin="round"/>
</svg>
