<svg width="186" height="25" viewBox="0 0 186 25" fill="none" xmlns="http://www.w3.org/2000/svg">
<path d="M4.75862 16.1768V16.0862L13.7068 3.53017V0.685352H0.362064V4.02156H8.76724V4.11209L0 16.5905V19.5H13.7328V16.1768H4.75862ZM25.0345 6.56892V12.8405C25.0345 14.0431 24.75 14.9741 24.2069 15.6207C23.6509 16.2801 22.9656 16.6035 22.1638 16.6035C21.3362 16.6035 20.7413 16.3707 20.3793 15.9052C20.0172 15.4396 19.8492 14.6121 19.8492 13.4483V6.56892H16.3836V14.3534C16.3836 15.3232 16.4871 16.1508 16.7198 16.8492C16.9526 17.5475 17.2758 18.1035 17.7156 18.5173C18.1552 18.9311 18.6465 19.2414 19.2155 19.4353C19.7715 19.6293 20.4181 19.7198 21.1422 19.7198C21.8793 19.7198 22.5776 19.5776 23.2371 19.2673C23.8965 18.9569 24.4785 18.5173 24.9828 17.9224H25.0345V19.5H28.5V6.56892H25.0345ZM39.3104 6.34911C38.5344 6.34911 37.8233 6.5431 37.1508 6.90514C36.4785 7.26729 35.8965 7.79738 35.4052 8.46983H35.3663V6.56892H31.9008V19.5H35.3663V13.5C35.3663 12.5173 35.6509 11.7026 36.2328 11.069C36.8147 10.4483 37.6293 10.125 38.6638 10.125C38.9224 10.125 39.2328 10.1379 39.5819 10.1638V6.36213C39.5302 6.36213 39.4397 6.34911 39.3104 6.34911ZM43.7199 4.74569C44.3017 4.74569 44.806 4.53879 45.2328 4.125C45.6466 3.71122 45.8664 3.21983 45.8664 2.625C45.8664 2.05604 45.6466 1.55173 45.2328 1.13794C44.806 0.724148 44.3017 0.517252 43.7199 0.517252C43.125 0.517252 42.6078 0.724148 42.194 1.13794C41.7802 1.55173 41.5732 2.05604 41.5732 2.625C41.5732 3.01293 41.6638 3.37501 41.8578 3.69828C42.0388 4.02156 42.2974 4.28014 42.6336 4.46122C42.9699 4.65521 43.3319 4.74569 43.7199 4.74569ZM41.987 19.5H45.4526V6.56892H41.987V19.5ZM63.5173 19.5H67.2672V0.685352H63.5173V19.5ZM78.8664 6.34911C78.0647 6.34911 77.3018 6.51727 76.5776 6.84047C75.8535 7.16378 75.2328 7.62933 74.7155 8.23711H74.6767V6.56892H71.2112V19.5H74.6767V12.9957C74.6767 11.8707 74.9353 11.0043 75.4655 10.3836C75.9957 9.77587 76.7069 9.46547 77.6121 9.46547C78.4526 9.46547 79.0733 9.71121 79.487 10.1897C79.8879 10.681 80.0948 11.5086 80.0948 12.6982V19.5129H83.5603V11.8319C83.5603 10.8621 83.444 10.0216 83.2241 9.29741C82.9914 8.58624 82.6681 8.0173 82.2414 7.59049C81.8147 7.17669 81.3233 6.86641 80.7673 6.65951C80.2112 6.45261 79.5776 6.34911 78.8664 6.34911ZM90.9052 19.7198C91.6939 19.7198 92.3406 19.6551 92.8448 19.5129C93.3362 19.3836 93.8405 19.1767 94.332 18.9051L93.4397 16.1379C92.8448 16.4483 92.3017 16.5905 91.8104 16.5905C91.3966 16.5905 91.1121 16.4612 90.931 16.1897C90.7501 15.931 90.6724 15.5043 90.6724 14.9354V9.43965H94.1896V6.56892H90.6724V1.96553L87.2069 2.34052V6.56892H85.681V9.43965H87.2069V15.4138C87.2069 16.8362 87.5302 17.9095 88.1896 18.6336C88.8491 19.3578 89.7543 19.7198 90.9052 19.7198ZM108.168 12.9182C108.168 11.6638 107.897 10.5388 107.379 9.54315C106.849 8.5474 106.099 7.77156 105.142 7.20263C104.172 6.63358 103.06 6.34911 101.819 6.34911C100.914 6.34911 100.06 6.51727 99.2715 6.84047C98.4699 7.17669 97.7974 7.62933 97.2285 8.21118C96.6595 8.79314 96.2198 9.50431 95.8965 10.3319C95.5603 11.1595 95.4052 12.0646 95.4052 13.0216C95.4052 14.3405 95.6896 15.5172 96.2716 16.5388C96.8534 17.5733 97.6552 18.3621 98.6638 18.9051C99.6724 19.4483 100.797 19.7198 102.065 19.7198C103.306 19.7198 104.392 19.5 105.349 19.0604C106.293 18.6207 107.056 18.0259 107.651 17.2759L105.401 15.181C104.586 16.1638 103.552 16.6552 102.31 16.6423C101.483 16.6423 100.772 16.4095 100.19 15.9699C99.6078 15.5301 99.2198 14.9354 99.0129 14.1595H108.078C108.129 13.9526 108.168 13.5388 108.168 12.9182ZM101.935 9.40092C102.659 9.40092 103.267 9.60781 103.746 10.0086C104.211 10.4095 104.547 10.9655 104.728 11.6638H99.0259C99.2198 10.9397 99.5689 10.3707 100.086 9.98276C100.603 9.59479 101.211 9.40092 101.935 9.40092ZM118.344 6.34911C117.569 6.34911 116.858 6.5431 116.185 6.90514C115.513 7.26729 114.931 7.79738 114.439 8.46983H114.401V6.56892H110.936V19.5H114.401V13.5C114.401 12.5173 114.685 11.7026 115.267 11.069C115.849 10.4483 116.664 10.125 117.699 10.125C117.957 10.125 118.267 10.1379 118.617 10.1638V6.36213C118.565 6.36213 118.475 6.34911 118.344 6.34911ZM128.521 6.34911C127.72 6.34911 126.957 6.51727 126.233 6.84047C125.509 7.16378 124.888 7.62933 124.37 8.23711H124.332V6.56892H120.867V19.5H124.332V12.9957C124.332 11.8707 124.591 11.0043 125.121 10.3836C125.651 9.77587 126.362 9.46547 127.267 9.46547C128.108 9.46547 128.729 9.71121 129.143 10.1897C129.543 10.681 129.75 11.5086 129.75 12.6982V19.5129H133.215V11.8319C133.215 10.8621 133.1 10.0216 132.879 9.29741C132.646 8.58624 132.323 8.0173 131.897 7.59049C131.47 7.17669 130.979 6.86641 130.423 6.65951C129.867 6.45261 129.233 6.34911 128.521 6.34911ZM140.716 19.7198C142.344 19.7198 143.586 19.3578 144.44 18.6078C145.293 17.8707 145.733 16.9008 145.733 15.6983C145.733 15.3879 145.707 15.0905 145.655 14.8319C145.487 13.9785 144.983 13.2802 144.155 12.7629C143.664 12.4526 142.707 12.0388 141.285 11.5086C140.599 11.25 140.108 11.0172 139.798 10.8104C139.487 10.6035 139.345 10.3707 139.345 10.1121C139.345 9.80169 139.474 9.56897 139.732 9.40092C139.992 9.23275 140.275 9.14227 140.612 9.14227C141.103 9.14227 141.62 9.25868 142.163 9.4914C142.707 9.72412 143.212 10.0603 143.703 10.513L145.383 7.97846C144.646 7.40952 143.897 6.99573 143.147 6.73708C142.384 6.47843 141.556 6.34911 140.651 6.34911C139.771 6.34911 138.97 6.51727 138.271 6.82756C137.573 7.15087 137.017 7.60351 136.603 8.19827C136.189 8.79314 135.996 9.46547 135.996 10.2285C135.996 10.6423 136.035 11.0172 136.137 11.3535C136.229 11.7026 136.37 12.0129 136.551 12.2715C136.733 12.5431 136.94 12.7888 137.172 12.9957C137.405 13.2155 137.677 13.4095 138 13.5905C138.31 13.7716 138.62 13.9138 138.931 14.0431C139.241 14.1724 139.59 14.3018 139.979 14.431C140.587 14.638 141.039 14.7931 141.349 14.9225C141.659 15.0518 141.892 15.194 142.073 15.3492C142.242 15.5043 142.332 15.6724 142.332 15.8664C142.332 16.1897 142.19 16.4483 141.905 16.6423C141.62 16.8492 141.233 16.9397 140.741 16.9397C139.422 16.9397 138.233 16.4354 137.159 15.4267L135.479 17.819C136.914 19.0862 138.66 19.7198 140.716 19.7198ZM156.13 6.34911C155.289 6.34911 154.513 6.50436 153.789 6.80174C153.064 7.11203 152.444 7.55176 151.927 8.1336H151.875V0H148.41V19.5H151.875V12.944C151.875 11.806 152.134 10.9526 152.677 10.3577C153.207 9.76296 153.944 9.46547 154.9 9.46547C155.755 9.46547 156.388 9.71121 156.802 10.1768C157.215 10.6552 157.423 11.4699 157.423 12.6078V19.5129H160.901V11.7284C160.901 10.7715 160.784 9.93101 160.551 9.23275C160.319 8.53449 159.983 7.96555 159.556 7.55176C159.117 7.13796 158.625 6.84047 158.056 6.6466C157.487 6.45261 156.854 6.34911 156.13 6.34911ZM166.099 4.74569C166.681 4.74569 167.185 4.53879 167.612 4.125C168.026 3.71122 168.246 3.21983 168.246 2.625C168.246 2.05604 168.026 1.55173 167.612 1.13794C167.185 0.724148 166.681 0.517252 166.099 0.517252C165.505 0.517252 164.987 0.724148 164.573 1.13794C164.159 1.55173 163.952 2.05604 163.952 2.625C163.952 3.01293 164.044 3.37501 164.237 3.69828C164.418 4.02156 164.677 4.28014 165.012 4.46122C165.349 4.65521 165.711 4.74569 166.099 4.74569ZM164.367 19.5H167.832V6.56892H164.367V19.5ZM178.94 6.34911C177.285 6.34911 175.979 6.91816 175.022 8.05603H174.97V6.56892H171.504V24.7371H174.97V18.0517H175.022C175.94 19.1638 177.207 19.7198 178.836 19.7198C179.716 19.7198 180.543 19.5647 181.306 19.2414C182.068 18.9311 182.728 18.4784 183.271 17.9095C183.814 17.3406 184.254 16.6293 184.564 15.8017C184.875 14.9741 185.03 14.056 185.03 13.0733C185.03 12.2975 184.926 11.5733 184.733 10.875C184.526 10.1767 184.241 9.55606 183.879 9.01294C183.517 8.46983 183.078 7.99137 182.586 7.59049C182.082 7.18972 181.513 6.87932 180.892 6.67242C180.272 6.46552 179.612 6.34911 178.94 6.34911ZM178.203 16.6164C177.569 16.6164 177 16.4741 176.483 16.1897C175.965 15.9052 175.565 15.4785 175.267 14.9354C174.97 14.3923 174.828 13.7845 174.828 13.0862C174.828 12.5819 174.905 12.1035 175.074 11.6508C175.241 11.2112 175.474 10.8233 175.771 10.5001C176.056 10.1897 176.418 9.93101 176.831 9.75005C177.245 9.56897 177.711 9.46547 178.203 9.46547C179.147 9.46547 179.935 9.80169 180.569 10.4612C181.19 11.1337 181.513 12 181.513 13.0862C181.513 14.1336 181.202 14.9871 180.582 15.6336C179.961 16.2932 179.172 16.6164 178.203 16.6164Z" fill="black"/>
<path d="M54.8642 19.903C55.931 19.903 56.8556 19.5238 57.6142 18.7652C58.3728 18.0065 58.7758 17.1057 58.7758 16.0389C58.7758 14.9958 58.3728 14.0712 57.6142 13.3126C56.8556 12.554 55.931 12.1509 54.8642 12.1509C53.7499 12.1509 52.8016 12.5302 52.043 13.2889C51.2844 14.0475 50.9052 14.9721 50.9052 16.0389C50.9052 17.1294 51.2844 18.0303 52.043 18.7889C52.8016 19.5475 53.7499 19.903 54.8642 19.903Z" fill="#E7332B"/>
</svg>
